<mxfile host="app.diagrams.net" modified="2023-04-10T12:23:06.996Z" agent="Mozilla/5.0 (Windows NT 10.0; Win64; x64) AppleWebKit/537.36 (KHTML, like Gecko) Chrome/109.0.0.0 Safari/537.36" etag="_E4VKZvCA3HOklSuf48R" version="21.1.2" type="github">
  <diagram name="第 1 页" id="fzbICHe675sfkpZO3XF6">
    <mxGraphModel dx="1434" dy="708" grid="1" gridSize="10" guides="1" tooltips="1" connect="1" arrows="1" fold="1" page="1" pageScale="1" pageWidth="827" pageHeight="1169" math="0" shadow="0">
      <root>
        <mxCell id="0" />
        <mxCell id="1" parent="0" />
        <mxCell id="Y5fnwwz6rVXHP7jdeB1v-1" value="查询套装基础信息" style="swimlane;childLayout=stackLayout;resizeParent=1;resizeParentMax=0;startSize=20;html=1;strokeColor=#666666;fillColor=#f5f5f5;fontColor=#333333;" vertex="1" parent="1">
          <mxGeometry x="200" y="594" width="882" height="690" as="geometry" />
        </mxCell>
        <mxCell id="Y5fnwwz6rVXHP7jdeB1v-2" style="edgeStyle=orthogonalEdgeStyle;rounded=0;orthogonalLoop=1;jettySize=auto;html=1;exitX=1;exitY=0.5;exitDx=0;exitDy=0;exitPerimeter=0;strokeColor=#00994D;" edge="1" parent="Y5fnwwz6rVXHP7jdeB1v-1" source="Y5fnwwz6rVXHP7jdeB1v-8" target="Y5fnwwz6rVXHP7jdeB1v-19">
          <mxGeometry relative="1" as="geometry" />
        </mxCell>
        <mxCell id="Y5fnwwz6rVXHP7jdeB1v-3" value="是" style="edgeLabel;html=1;align=center;verticalAlign=middle;resizable=0;points=[];" vertex="1" connectable="0" parent="Y5fnwwz6rVXHP7jdeB1v-2">
          <mxGeometry x="-0.545" y="3" relative="1" as="geometry">
            <mxPoint as="offset" />
          </mxGeometry>
        </mxCell>
        <mxCell id="Y5fnwwz6rVXHP7jdeB1v-5" value="交易" style="swimlane;startSize=20;html=1;fillColor=#f5f5f5;fontColor=#333333;strokeColor=#666666;" vertex="1" parent="Y5fnwwz6rVXHP7jdeB1v-1">
          <mxGeometry y="20" width="564" height="670" as="geometry" />
        </mxCell>
        <mxCell id="Y5fnwwz6rVXHP7jdeB1v-6" value="开始" style="strokeWidth=1;html=1;shape=mxgraph.flowchart.start_2;whiteSpace=wrap;fillColor=#d5e8d4;strokeColor=none;" vertex="1" parent="Y5fnwwz6rVXHP7jdeB1v-5">
          <mxGeometry x="249" y="39" width="50" height="50" as="geometry" />
        </mxCell>
        <mxCell id="Y5fnwwz6rVXHP7jdeB1v-8" value="是否使用&lt;br&gt;新商品服务" style="strokeWidth=1;html=1;shape=mxgraph.flowchart.decision;whiteSpace=wrap;fillColor=#d5e8d4;strokeColor=none;" vertex="1" parent="Y5fnwwz6rVXHP7jdeB1v-5">
          <mxGeometry x="229" y="149" width="90" height="50" as="geometry" />
        </mxCell>
        <mxCell id="Y5fnwwz6rVXHP7jdeB1v-12" style="edgeStyle=orthogonalEdgeStyle;rounded=0;orthogonalLoop=1;jettySize=auto;html=1;entryX=0.5;entryY=0;entryDx=0;entryDy=0;entryPerimeter=0;strokeColor=#009900;exitX=0.5;exitY=1;exitDx=0;exitDy=0;exitPerimeter=0;" edge="1" parent="Y5fnwwz6rVXHP7jdeB1v-5" source="Y5fnwwz6rVXHP7jdeB1v-6" target="Y5fnwwz6rVXHP7jdeB1v-8">
          <mxGeometry relative="1" as="geometry">
            <mxPoint x="274" y="250" as="sourcePoint" />
          </mxGeometry>
        </mxCell>
        <mxCell id="Y5fnwwz6rVXHP7jdeB1v-16" value="结束" style="strokeWidth=1;html=1;shape=mxgraph.flowchart.start_2;whiteSpace=wrap;fillColor=#d5e8d4;strokeColor=none;" vertex="1" parent="Y5fnwwz6rVXHP7jdeB1v-5">
          <mxGeometry x="257" y="596" width="50" height="50" as="geometry" />
        </mxCell>
        <mxCell id="Y5fnwwz6rVXHP7jdeB1v-34" style="edgeStyle=orthogonalEdgeStyle;rounded=0;orthogonalLoop=1;jettySize=auto;html=1;exitX=0.5;exitY=1;exitDx=0;exitDy=0;entryX=0;entryY=0.5;entryDx=0;entryDy=0;entryPerimeter=0;strokeColor=#6C8EBF;" edge="1" parent="Y5fnwwz6rVXHP7jdeB1v-5" source="Y5fnwwz6rVXHP7jdeB1v-32" target="Y5fnwwz6rVXHP7jdeB1v-16">
          <mxGeometry relative="1" as="geometry" />
        </mxCell>
        <mxCell id="Y5fnwwz6rVXHP7jdeB1v-32" value="组装套装信息" style="rounded=1;whiteSpace=wrap;html=1;absoluteArcSize=1;arcSize=14;strokeWidth=1;align=center;strokeColor=none;fillColor=#d5e8d4;" vertex="1" parent="Y5fnwwz6rVXHP7jdeB1v-5">
          <mxGeometry x="120" y="506" width="120" height="30" as="geometry" />
        </mxCell>
        <mxCell id="Y5fnwwz6rVXHP7jdeB1v-35" style="edgeStyle=orthogonalEdgeStyle;rounded=0;orthogonalLoop=1;jettySize=auto;html=1;entryX=1;entryY=0.5;entryDx=0;entryDy=0;entryPerimeter=0;strokeColor=#009900;" edge="1" parent="Y5fnwwz6rVXHP7jdeB1v-5" source="Y5fnwwz6rVXHP7jdeB1v-33" target="Y5fnwwz6rVXHP7jdeB1v-16">
          <mxGeometry relative="1" as="geometry">
            <Array as="points">
              <mxPoint x="380" y="621" />
            </Array>
          </mxGeometry>
        </mxCell>
        <mxCell id="Y5fnwwz6rVXHP7jdeB1v-33" value="组装套装信息" style="rounded=1;whiteSpace=wrap;html=1;absoluteArcSize=1;arcSize=14;strokeWidth=1;align=center;strokeColor=none;fillColor=#d5e8d4;" vertex="1" parent="Y5fnwwz6rVXHP7jdeB1v-5">
          <mxGeometry x="319" y="506" width="120" height="30" as="geometry" />
        </mxCell>
        <mxCell id="Y5fnwwz6rVXHP7jdeB1v-36" value="create.order.setting.common.gray.switch:&lt;br&gt;&lt;div style=&quot;&quot;&gt;&quot;productFunctionChangeSwitch&quot;:&lt;span style=&quot;background-color: initial;&quot;&gt;{&lt;/span&gt;&lt;/div&gt;&lt;div style=&quot;&quot;&gt;&lt;span style=&quot;background-color: initial;&quot;&gt;&lt;span style=&quot;white-space: pre;&quot;&gt;	&lt;/span&gt;&quot;signal&quot;: true,&lt;/span&gt;&lt;/div&gt;&lt;div style=&quot;&quot;&gt;&lt;span style=&quot;white-space: pre;&quot;&gt;	&lt;/span&gt;&quot;keyStartWithsIn&quot;: &quot;&quot;,&lt;/div&gt;&lt;div style=&quot;&quot;&gt;&lt;span style=&quot;white-space: pre;&quot;&gt;	&lt;/span&gt;&quot;keyIn&quot;: &quot;&quot;&lt;/div&gt;&lt;div style=&quot;&quot;&gt;}&lt;br&gt;&lt;/div&gt;" style="shape=callout;whiteSpace=wrap;html=1;perimeter=calloutPerimeter;position2=1;fillColor=#fad9d5;strokeColor=none;rounded=1;align=left;" vertex="1" parent="Y5fnwwz6rVXHP7jdeB1v-5">
          <mxGeometry x="10" y="46" width="230" height="120" as="geometry" />
        </mxCell>
        <mxCell id="Y5fnwwz6rVXHP7jdeB1v-18" value="门店" style="swimlane;startSize=20;html=1;fillColor=#f5f5f5;fontColor=#333333;strokeColor=#666666;" vertex="1" parent="Y5fnwwz6rVXHP7jdeB1v-1">
          <mxGeometry x="564" y="20" width="318" height="670" as="geometry" />
        </mxCell>
        <mxCell id="Y5fnwwz6rVXHP7jdeB1v-19" value="&lt;div&gt;&lt;div&gt;&lt;div&gt;APPID:int-spring-cl-product-query-service&lt;/div&gt;&lt;div&gt;URI:/package/getPackageSkuListBySkuIds&lt;/div&gt;&lt;div&gt;商品套餐信息查询&lt;/div&gt;&lt;/div&gt;&lt;/div&gt;" style="rounded=1;whiteSpace=wrap;html=1;absoluteArcSize=1;arcSize=14;strokeWidth=1;strokeColor=none;fillColor=#d5e8d4;" vertex="1" parent="Y5fnwwz6rVXHP7jdeB1v-18">
          <mxGeometry x="44" y="209" width="230" height="50" as="geometry" />
        </mxCell>
        <mxCell id="Y5fnwwz6rVXHP7jdeB1v-30" value="&lt;div&gt;&lt;div&gt;APPID:product-client&lt;/div&gt;&lt;div&gt;URI:/Product/ProductForYeWu/SelectProductPackage&lt;/div&gt;&lt;div&gt;套装信息查询&lt;/div&gt;&lt;/div&gt;" style="rounded=1;whiteSpace=wrap;html=1;absoluteArcSize=1;arcSize=14;strokeWidth=1;strokeColor=none;fillColor=#dae8fc;" vertex="1" parent="Y5fnwwz6rVXHP7jdeB1v-18">
          <mxGeometry x="8" y="380" width="302" height="50" as="geometry" />
        </mxCell>
        <mxCell id="Y5fnwwz6rVXHP7jdeB1v-7" style="edgeStyle=orthogonalEdgeStyle;rounded=0;orthogonalLoop=1;jettySize=auto;html=1;exitX=0;exitY=0.5;exitDx=0;exitDy=0;exitPerimeter=0;strokeColor=#6C8EBF;entryX=0.5;entryY=0;entryDx=0;entryDy=0;" edge="1" parent="Y5fnwwz6rVXHP7jdeB1v-1" source="Y5fnwwz6rVXHP7jdeB1v-8" target="Y5fnwwz6rVXHP7jdeB1v-30">
          <mxGeometry relative="1" as="geometry">
            <mxPoint x="134" y="320" as="targetPoint" />
            <Array as="points">
              <mxPoint x="170" y="194" />
              <mxPoint x="170" y="356" />
              <mxPoint x="723" y="356" />
            </Array>
          </mxGeometry>
        </mxCell>
        <mxCell id="Y5fnwwz6rVXHP7jdeB1v-28" value="否" style="edgeLabel;html=1;align=center;verticalAlign=middle;resizable=0;points=[];" vertex="1" connectable="0" parent="Y5fnwwz6rVXHP7jdeB1v-7">
          <mxGeometry x="-0.448" relative="1" as="geometry">
            <mxPoint as="offset" />
          </mxGeometry>
        </mxCell>
        <mxCell id="Y5fnwwz6rVXHP7jdeB1v-29" style="edgeStyle=orthogonalEdgeStyle;rounded=0;orthogonalLoop=1;jettySize=auto;html=1;exitX=0.5;exitY=1;exitDx=0;exitDy=0;entryX=0.5;entryY=0;entryDx=0;entryDy=0;strokeColor=#009900;" edge="1" parent="Y5fnwwz6rVXHP7jdeB1v-1" source="Y5fnwwz6rVXHP7jdeB1v-19" target="Y5fnwwz6rVXHP7jdeB1v-33">
          <mxGeometry relative="1" as="geometry">
            <mxPoint x="380" y="526" as="targetPoint" />
            <Array as="points">
              <mxPoint x="723" y="316" />
              <mxPoint x="380" y="316" />
            </Array>
          </mxGeometry>
        </mxCell>
        <mxCell id="Y5fnwwz6rVXHP7jdeB1v-31" style="edgeStyle=orthogonalEdgeStyle;rounded=0;orthogonalLoop=1;jettySize=auto;html=1;exitX=0.5;exitY=1;exitDx=0;exitDy=0;entryX=0.5;entryY=0;entryDx=0;entryDy=0;strokeColor=#6C8EBF;" edge="1" parent="Y5fnwwz6rVXHP7jdeB1v-1" source="Y5fnwwz6rVXHP7jdeB1v-30" target="Y5fnwwz6rVXHP7jdeB1v-32">
          <mxGeometry relative="1" as="geometry">
            <mxPoint x="180" y="526" as="targetPoint" />
            <Array as="points">
              <mxPoint x="723" y="486" />
              <mxPoint x="180" y="486" />
            </Array>
          </mxGeometry>
        </mxCell>
      </root>
    </mxGraphModel>
  </diagram>
</mxfile>
